<?xml version="1.0" encoding="UTF-8"?><svg id="Layer_1" xmlns="http://www.w3.org/2000/svg" viewBox="0 0 499.31 330.96"><rect x="215.86" y="102.4" width="31.82" height="34.13"/><rect x="247.68" y="136.53" width="31.82" height="34.13"/><rect x="247.68" width="31.82" height="34.13"/><rect x="215.86" y="34.13" width="31.82" height="34.13"/><rect x="247.68" y="68.27" width="31.82" height="34.13"/><path d="M0,197.65c0-.88.55-1.42,1.42-1.42h46.76c.88,0,1.42.55,1.42,1.42v9.42c0,.88-.55,1.42-1.42,1.42h-31.98c-1.86,0-3.07,1.21-3.07,3.07v13.8c0,1.86,1.2,3.07,3.07,3.07h24.09c.88,0,1.42.55,1.42,1.42v9.42c0,.88-.55,1.42-1.42,1.42h-24.09c-1.86,0-3.07,1.2-3.07,3.07v13.8c0,1.86,1.2,3.07,3.07,3.07h31.98c.88,0,1.42.55,1.42,1.42v9.42c0,.88-.55,1.42-1.42,1.42H1.42c-.88,0-1.42-.55-1.42-1.42v-73.81Z"/><path d="M65.49,196.23h18.18c2.96,0,5.04,0,6.24.11,23.98,1.64,36.03,19.93,36.03,38.22s-12.05,36.03-36.03,38.22c-1.2.11-3.29.11-6.24.11h-18.18c-.88,0-1.42-.55-1.42-1.42v-73.81c0-.88.55-1.42,1.42-1.42ZM77.21,257.44c0,1.86,1.2,3.07,3.07,3.07h2.85c3.18,0,5.04,0,6.24-.11,31.43-3.07,30.55-51.91-3.18-51.91h-5.91c-1.86,0-3.07,1.21-3.07,3.07v45.89Z"/><path d="M170.74,275.51c-15.44,0-30.99-10.62-30.99-31.76v-46.11c0-.88.55-1.42,1.42-1.42h10.29c.88,0,1.42.55,1.42,1.42v46.11c0,11.94,8.98,17.85,17.85,17.85s17.85-5.91,17.85-17.85v-46.11c0-.88.55-1.42,1.42-1.42h10.29c.77,0,1.42.55,1.42,1.42v46.11c0,21.14-15.44,31.76-30.99,31.76Z"/><path d="M217.28,197.65c0-.88.55-1.42,1.42-1.42h1.64c.77,0,1.75.44,2.3.99l41.94,45.01c.55.55.88.77,1.31.77s.77-.55.77-1.64v-43.7c0-.88.55-1.42,1.42-1.42h10.29c.88,0,1.42.55,1.42,1.42v73.81c0,.88-.55,1.42-1.42,1.42h-1.53c-.88,0-1.86-.44-2.41-1.09l-41.94-45.12c-.44-.55-.88-.77-1.31-.77s-.77.55-.77,1.64v43.91c0,.88-.55,1.42-1.42,1.42h-10.29c-.88,0-1.42-.55-1.42-1.42v-73.81Z"/><path d="M296.47,197.65c0-.88.55-1.42,1.42-1.42h46.76c.88,0,1.42.55,1.42,1.42v9.42c0,.88-.55,1.42-1.42,1.42h-31.98c-1.86,0-3.07,1.21-3.07,3.07v13.8c0,1.86,1.2,3.07,3.07,3.07h24.09c.88,0,1.42.55,1.42,1.42v9.42c0,.88-.55,1.42-1.42,1.42h-24.09c-1.86,0-3.07,1.2-3.07,3.07v13.8c0,1.86,1.2,3.07,3.07,3.07h31.98c.88,0,1.42.55,1.42,1.42v9.42c0,.88-.55,1.42-1.42,1.42h-46.76c-.88,0-1.42-.55-1.42-1.42v-73.81Z"/><path d="M360.54,271.46v-74.69c0-.33.22-.55.55-.55h20.59c3.07,0,4.93,0,6.24.11,26.06,2.41,30.12,33.18,11.06,42.71-1.75.88-2.08,2.3-1.09,3.83l19.71,28.8c.55.77.22,1.21-.66,1.21h-12.81c-.88,0-1.75-.44-2.3-1.21l-18.07-26.83c-1.1-1.53-2.96-2.52-4.82-2.52h-2.19c-1.86,0-3.07,1.2-3.07,3.07v26.06c0,.88-.55,1.42-1.42,1.42h-10.29c-.88,0-1.42-.55-1.42-1.42ZM373.68,226.78c0,1.86,1.2,3.18,3.07,3.18h8c16.65,0,16.54-21.36,0-21.36h-8c-1.86,0-3.07,1.31-3.07,3.18v15Z"/><path d="M426.79,271.57l34.61-75.45c.22-.55.99-.99,1.64-.99s1.31.44,1.53.99l34.61,75.45c.33.77,0,1.31-.88,1.31h-10.73c-.88,0-1.75-.55-2.08-1.31l-3.07-6.68c-.77-1.64-2.52-2.74-4.38-2.74h-30.12c-1.86,0-3.61,1.1-4.38,2.74l-3.07,6.68c-.33.77-1.2,1.31-1.97,1.31h-10.84c-.88,0-1.21-.55-.88-1.31ZM453.62,249.89h18.84c1.86,0,2.52-1.09,1.75-2.85l-9.86-21.46c-.44-.88-.88-1.31-1.31-1.31s-.88.44-1.31,1.31l-9.97,21.46c-.77,1.75,0,2.85,1.86,2.85Z"/><path d="M140.59,322.78c0,1.6-.23,2.9-.68,3.89-.45,1-1.21,1.84-2.28,2.52-1.07.69-2.57,1.27-4.49,1.76l-.71-1.56c1.26-.4,2.16-.81,2.69-1.22.53-.41.9-.92,1.11-1.54.21-.62.31-1.44.31-2.49v-19.96c0-1.03-.06-1.73-.18-2.11-.12-.38-.32-.67-.6-.87-.28-.2-.86-.4-1.73-.59v-.87h9.09v.87c-.63.13-1.09.26-1.37.39-.28.13-.5.29-.67.49-.17.2-.29.49-.37.88-.08.39-.12.99-.12,1.81v18.6Z"/><path d="M169.56,315.61c0,1.29-.14,2.4-.43,3.34-.27.89-.68,1.68-1.23,2.36-.5.62-1.13,1.14-1.87,1.57-.75.43-1.65.77-2.71,1.02-1.06.25-2.31.37-3.75.37-1.74,0-3.23-.16-4.47-.48s-2.27-.84-3.08-1.57c-.81-.73-1.4-1.59-1.76-2.58-.36-.99-.54-2.25-.54-3.77v-11.69c0-.92-.04-1.55-.11-1.87-.07-.33-.18-.58-.31-.77-.14-.19-.33-.35-.59-.49-.26-.14-.74-.28-1.44-.44v-.87h9.05v.87c-.8.17-1.36.35-1.68.56-.32.21-.53.52-.65.93-.12.41-.17,1.11-.17,2.08v12.58c0,1.15.15,2.11.44,2.89.29.78.71,1.39,1.24,1.82.53.43,1.16.75,1.9.94.73.2,1.64.29,2.74.29,1.01,0,1.89-.14,2.65-.43.76-.29,1.4-.73,1.91-1.32.51-.59.86-1.32,1.04-2.18.19-.86.28-2.03.28-3.48v-11.1c0-1.03-.06-1.73-.18-2.11-.12-.38-.32-.67-.6-.87-.28-.2-.86-.4-1.73-.59v-.87h8.6v.87c-.83.18-1.4.37-1.71.59-.31.21-.52.52-.64.92-.12.4-.17,1.09-.17,2.06v11.42Z"/><path d="M178.48,318.47c.29,1.04.68,1.86,1.16,2.47.49.6,1.12,1.05,1.9,1.34s1.77.43,2.99.43c1.68,0,2.97-.36,3.87-1.08.9-.72,1.35-1.78,1.35-3.16,0-.89-.19-1.63-.56-2.24s-.98-1.17-1.83-1.71c-.85-.53-2.14-1.15-3.88-1.87-1.68-.69-3.01-1.36-3.99-2.02-.98-.66-1.71-1.37-2.19-2.14-.48-.77-.72-1.61-.72-2.52,0-1.33.38-2.48,1.13-3.46.75-.98,1.86-1.73,3.32-2.26,1.46-.53,3.13-.8,5.01-.8,1.09,0,2.16.05,3.2.14,1.04.1,2.34.31,3.91.64v4.8h-2.13c-.33-1.04-.75-1.85-1.25-2.43s-1.09-.99-1.77-1.22c-.68-.23-1.55-.35-2.63-.35-.93,0-1.77.14-2.51.43-.74.28-1.33.71-1.76,1.29-.43.57-.65,1.26-.65,2.05,0,.84.18,1.55.55,2.13s.94,1.12,1.71,1.62c.78.5,1.92,1.05,3.45,1.67,1.84.76,3.26,1.46,4.28,2.11,1.01.65,1.8,1.39,2.37,2.23.57.83.85,1.81.85,2.92,0,1.24-.24,2.29-.71,3.15s-1.13,1.56-1.97,2.1c-.84.54-1.85.93-3.02,1.17-1.17.24-2.45.36-3.85.36-2.26,0-4.85-.31-7.8-.94v-4.87h2.15Z"/><path d="M196.69,299.75h23.31v6.18h-2.11c-.32-1.02-.63-1.82-.94-2.42-.31-.59-.64-1.04-.98-1.35-.34-.31-.71-.53-1.11-.66-.4-.13-.99-.2-1.78-.2h-2.74v18.19c0,.7.05,1.25.14,1.67.09.42.24.74.43.99.19.24.46.43.79.57.33.14.85.27,1.55.4v.87h-9.85v-.87c.43-.08.81-.17,1.14-.27.33-.09.6-.21.81-.35.21-.14.38-.31.52-.52.14-.21.24-.5.32-.87.08-.37.12-.91.12-1.62v-18.19h-2.71c-.68,0-1.23.05-1.67.16s-.84.33-1.22.67-.71.82-1.02,1.44c-.31.62-.6,1.41-.87,2.35h-2.13v-6.18Z"/><path d="M240.3,322.36h5.64c.62,0,1.13-.03,1.55-.09s.77-.15,1.07-.28c.29-.12.56-.3.8-.52.24-.22.46-.51.68-.86.21-.35.42-.8.61-1.34.19-.54.43-1.35.72-2.42h2.18l-.43,7.14h-19.37v-.87c.89-.19,1.49-.4,1.79-.63.3-.23.5-.56.59-.99.09-.43.14-1.08.14-1.95v-15.36c0-.82-.04-1.41-.11-1.79-.07-.37-.19-.66-.36-.87-.17-.21-.38-.37-.66-.5-.27-.12-.74-.26-1.4-.42v-.87h9.07v.87c-.63.14-1.08.27-1.35.38-.27.11-.48.26-.66.45s-.3.48-.39.87c-.09.39-.13,1.01-.13,1.87v18.17Z"/><path d="M277.57,299.75v5.36h-2.11c-.21-.58-.44-1.09-.67-1.53-.23-.44-.47-.8-.71-1.1s-.51-.53-.81-.71c-.29-.18-.64-.3-1.04-.36-.4-.06-.88-.1-1.44-.1h-6.81v9.31h4.61c.63,0,1.13-.07,1.49-.22.36-.15.66-.4.89-.75.24-.35.46-.91.68-1.67h2.03v6.82h-2.03c-.2-.71-.42-1.25-.67-1.61s-.54-.62-.87-.77c-.34-.15-.84-.23-1.52-.23h-4.61v10.25h6.7c.7,0,1.28-.05,1.71-.15.44-.1.82-.27,1.13-.52.32-.24.6-.56.84-.95.24-.39.45-.8.62-1.22.16-.42.39-1.03.68-1.84h2.13l-.41,6.23h-19.95v-.87c.89-.19,1.49-.4,1.79-.63.3-.23.5-.56.59-.99.09-.43.14-1.08.14-1.95v-15.36c0-.82-.04-1.41-.11-1.79s-.19-.66-.36-.87-.38-.37-.66-.5c-.27-.12-.74-.26-1.4-.42v-.87h20.14Z"/><path d="M297.02,323.99v-.87c.72-.12,1.25-.25,1.61-.39.35-.14.61-.34.79-.6.17-.25.26-.59.26-1.02,0-.4-.06-.84-.17-1.31-.12-.47-.28-.99-.5-1.57l-.8-2.29h-10.04l-.73,1.74c-.37.88-.62,1.54-.73,1.99-.12.45-.17.86-.17,1.23,0,.71.22,1.23.66,1.56s1.11.55,2.01.66v.87h-9.2v-.87c.8-.11,1.5-.49,2.1-1.15.6-.66,1.17-1.61,1.73-2.84l8.98-19.66h3.4l7.33,19.8c.34.92.65,1.63.92,2.11.27.49.58.87.96,1.14.37.27.88.47,1.53.6v.87h-9.93ZM288.75,314.4h9.01l-4.09-11.46-4.91,11.46Z"/><path d="M316.54,313.46v6.04c0,.85.04,1.47.12,1.86.08.38.2.67.36.87s.37.36.65.48c.27.12.74.26,1.4.42v.87h-9.09v-.87c.89-.19,1.49-.4,1.79-.63.3-.23.5-.56.59-.99.09-.43.14-1.08.14-1.95v-15.36c0-.82-.04-1.41-.11-1.79-.07-.37-.19-.66-.36-.87s-.38-.37-.66-.5c-.27-.12-.74-.26-1.4-.42v-.87h10.66c3.36,0,5.88.5,7.54,1.51s2.5,2.57,2.5,4.69c0,1.62-.54,3-1.63,4.14-1.08,1.14-2.71,2.02-4.88,2.66v.14c.88.3,1.63.72,2.25,1.27s1.32,1.41,2.08,2.57l1.94,2.91c.56.85,1.04,1.5,1.44,1.95.4.45.81.79,1.23,1.03.42.24.97.4,1.66.5v.87h-5.97c-.55-.63-1.06-1.3-1.55-2.02-.49-.72-.97-1.46-1.44-2.2l-1.9-2.97c-.58-.9-1.04-1.56-1.41-1.99-.37-.43-.7-.73-1.01-.9-.31-.17-.64-.29-.99-.35-.35-.07-.88-.1-1.58-.1h-2.37ZM316.54,301.38v10.55h2.43c1.25,0,2.26-.07,3.04-.22.78-.15,1.49-.43,2.15-.84.66-.41,1.19-.99,1.58-1.73.39-.74.59-1.65.59-2.73s-.23-2.06-.7-2.81c-.47-.75-1.17-1.31-2.12-1.71-.95-.39-2.23-.59-3.83-.59-1.29,0-2.34.02-3.15.07Z"/><path d="M354.68,314.38c.52.71.95,1.33,1.3,1.87.35.53.71,1.13,1.09,1.79h.28c-.07-.72-.14-2.16-.19-4.31-.06-2.15-.09-4.09-.09-5.82v-3.73c0-.82-.03-1.42-.09-1.79s-.16-.67-.31-.87c-.15-.2-.36-.36-.62-.49-.27-.12-.73-.26-1.39-.42v-.87h7.76v.87c-.65.14-1.1.27-1.37.39-.27.12-.48.27-.65.46s-.29.47-.38.85-.13,1-.13,1.87v19.91h-2.69l-12-16.59c-.75-1.03-1.28-1.78-1.59-2.26-.32-.47-.61-.94-.88-1.4h-.37c.1.91.17,2.56.21,4.95.04,2.39.07,4.76.07,7.13v3.62c0,.79.03,1.37.1,1.74.06.37.17.66.32.87.15.21.37.39.67.53.29.14.77.28,1.43.43v.87h-7.86v-.87c.89-.19,1.49-.4,1.79-.63.3-.23.5-.56.59-.99.09-.43.14-1.08.14-1.95v-15.36c0-.82-.04-1.41-.11-1.79s-.19-.66-.36-.87-.38-.37-.66-.5c-.27-.12-.74-.26-1.4-.42v-.87h6.74l10.64,14.63Z"/></svg>