<?xml version="1.0" encoding="UTF-8"?><svg id="Layer_1" xmlns="http://www.w3.org/2000/svg" viewBox="0 0 499.31 275.51"><defs><style>.cls-1{fill:#fff;}</style></defs><rect class="cls-1" x="215.86" y="102.4" width="31.82" height="34.13"/><rect class="cls-1" x="247.68" y="136.53" width="31.82" height="34.13"/><rect class="cls-1" x="247.68" width="31.82" height="34.13"/><rect class="cls-1" x="215.86" y="34.13" width="31.82" height="34.13"/><rect class="cls-1" x="247.68" y="68.27" width="31.82" height="34.13"/><path class="cls-1" d="M0,197.65c0-.88.55-1.42,1.42-1.42h46.76c.88,0,1.42.55,1.42,1.42v9.42c0,.88-.55,1.42-1.42,1.42h-31.98c-1.86,0-3.07,1.21-3.07,3.07v13.8c0,1.86,1.2,3.07,3.07,3.07h24.09c.88,0,1.42.55,1.42,1.42v9.42c0,.88-.55,1.42-1.42,1.42h-24.09c-1.86,0-3.07,1.2-3.07,3.07v13.8c0,1.86,1.2,3.07,3.07,3.07h31.98c.88,0,1.42.55,1.42,1.42v9.42c0,.88-.55,1.42-1.42,1.42H1.42c-.88,0-1.42-.55-1.42-1.42v-73.81Z"/><path class="cls-1" d="M65.49,196.23h18.18c2.96,0,5.04,0,6.24.11,23.98,1.64,36.03,19.93,36.03,38.22s-12.05,36.03-36.03,38.22c-1.2.11-3.29.11-6.24.11h-18.18c-.88,0-1.42-.55-1.42-1.42v-73.81c0-.88.55-1.42,1.42-1.42ZM77.21,257.44c0,1.86,1.2,3.07,3.07,3.07h2.85c3.18,0,5.04,0,6.24-.11,31.43-3.07,30.55-51.91-3.18-51.91h-5.91c-1.86,0-3.07,1.21-3.07,3.07v45.89Z"/><path class="cls-1" d="M170.74,275.51c-15.44,0-30.99-10.62-30.99-31.76v-46.11c0-.88.55-1.42,1.42-1.42h10.29c.88,0,1.42.55,1.42,1.42v46.11c0,11.94,8.98,17.85,17.85,17.85s17.85-5.91,17.85-17.85v-46.11c0-.88.55-1.42,1.42-1.42h10.29c.77,0,1.42.55,1.42,1.42v46.11c0,21.14-15.44,31.76-30.99,31.76Z"/><path class="cls-1" d="M217.28,197.65c0-.88.55-1.42,1.42-1.42h1.64c.77,0,1.75.44,2.3.99l41.94,45.01c.55.55.88.77,1.31.77s.77-.55.77-1.64v-43.7c0-.88.55-1.42,1.42-1.42h10.29c.88,0,1.42.55,1.42,1.42v73.81c0,.88-.55,1.42-1.42,1.42h-1.53c-.88,0-1.86-.44-2.41-1.09l-41.94-45.12c-.44-.55-.88-.77-1.31-.77s-.77.55-.77,1.64v43.91c0,.88-.55,1.42-1.42,1.42h-10.29c-.88,0-1.42-.55-1.42-1.42v-73.81Z"/><path class="cls-1" d="M296.47,197.65c0-.88.55-1.42,1.42-1.42h46.76c.88,0,1.42.55,1.42,1.42v9.42c0,.88-.55,1.42-1.42,1.42h-31.98c-1.86,0-3.07,1.21-3.07,3.07v13.8c0,1.86,1.2,3.07,3.07,3.07h24.09c.88,0,1.42.55,1.42,1.42v9.42c0,.88-.55,1.42-1.42,1.42h-24.09c-1.86,0-3.07,1.2-3.07,3.07v13.8c0,1.86,1.2,3.07,3.07,3.07h31.98c.88,0,1.42.55,1.42,1.42v9.42c0,.88-.55,1.42-1.42,1.42h-46.76c-.88,0-1.42-.55-1.42-1.42v-73.81Z"/><path class="cls-1" d="M360.54,271.46v-74.69c0-.33.22-.55.55-.55h20.59c3.07,0,4.93,0,6.24.11,26.06,2.41,30.12,33.18,11.06,42.71-1.75.88-2.08,2.3-1.09,3.83l19.71,28.8c.55.77.22,1.21-.66,1.21h-12.81c-.88,0-1.75-.44-2.3-1.21l-18.07-26.83c-1.1-1.53-2.96-2.52-4.82-2.52h-2.19c-1.86,0-3.07,1.2-3.07,3.07v26.06c0,.88-.55,1.42-1.42,1.42h-10.29c-.88,0-1.42-.55-1.42-1.42ZM373.68,226.78c0,1.86,1.2,3.18,3.07,3.18h8c16.65,0,16.54-21.36,0-21.36h-8c-1.86,0-3.07,1.31-3.07,3.18v15Z"/><path class="cls-1" d="M426.79,271.57l34.61-75.45c.22-.55.99-.99,1.64-.99s1.31.44,1.53.99l34.61,75.45c.33.77,0,1.31-.88,1.31h-10.73c-.88,0-1.75-.55-2.08-1.31l-3.07-6.68c-.77-1.64-2.52-2.74-4.38-2.74h-30.12c-1.86,0-3.61,1.1-4.38,2.74l-3.07,6.68c-.33.77-1.2,1.31-1.97,1.31h-10.84c-.88,0-1.21-.55-.88-1.31ZM453.62,249.89h18.84c1.86,0,2.52-1.09,1.75-2.85l-9.86-21.46c-.44-.88-.88-1.31-1.31-1.31s-.88.44-1.31,1.31l-9.97,21.46c-.77,1.75,0,2.85,1.86,2.85Z"/></svg>