<?xml version="1.0" encoding="UTF-8"?><svg id="Layer_1" xmlns="http://www.w3.org/2000/svg" viewBox="0 0 1047.33 256"><rect y="153.6" width="51.2" height="51.2"/><rect x="51.2" y="204.8" width="51.2" height="51.2"/><rect x="51.2" width="51.2" height="51.2"/><rect y="51.2" width="51.2" height="51.2"/><rect x="51.2" y="102.4" width="51.2" height="51.2"/><path d="M145.95,42.43h37.78c6.14,0,10.47,0,12.97.23,49.84,3.41,74.87,41.42,74.87,79.42s-25.03,74.87-74.87,79.42c-2.5.23-6.83.23-12.97.23h-37.78c-1.82,0-2.96-1.14-2.96-2.96V45.38c0-1.82,1.14-2.96,2.96-2.96ZM170.3,169.64c0,3.87,2.5,6.37,6.37,6.37h5.92c6.6,0,10.47,0,12.97-.23,65.31-6.37,63.49-107.87-6.6-107.87h-12.29c-3.87,0-6.37,2.5-6.37,6.37v95.35Z"/><path d="M364.63,207.19c-32.09,0-64.4-22.08-64.4-66V45.38c0-1.82,1.14-2.96,2.96-2.96h21.39c1.82,0,2.96,1.14,2.96,2.96v95.81c0,24.8,18.66,37.09,37.09,37.09s37.09-12.29,37.09-37.09V45.38c0-1.82,1.14-2.96,2.96-2.96h21.39c1.59,0,2.96,1.14,2.96,2.96v95.81c0,43.92-32.09,66-64.4,66Z"/><path d="M461.34,45.38c0-1.82,1.14-2.96,2.96-2.96h3.41c1.59,0,3.64.91,4.78,2.05l87.16,93.53c1.14,1.14,1.82,1.59,2.73,1.59s1.59-1.14,1.59-3.41V45.38c0-1.82,1.14-2.96,2.96-2.96h21.39c1.82,0,2.96,1.14,2.96,2.96v153.38c0,1.82-1.14,2.96-2.96,2.96h-3.19c-1.82,0-3.87-.91-5.01-2.28l-87.16-93.76c-.91-1.14-1.82-1.59-2.73-1.59s-1.59,1.14-1.59,3.41v91.25c0,1.82-1.14,2.96-2.96,2.96h-21.39c-1.82,0-2.96-1.14-2.96-2.96V45.38Z"/><path d="M625.86,45.38c0-1.82,1.14-2.96,2.96-2.96h97.17c1.82,0,2.96,1.14,2.96,2.96v19.57c0,1.82-1.14,2.96-2.96,2.96h-66.45c-3.87,0-6.37,2.5-6.37,6.37v28.67c0,3.87,2.5,6.37,6.37,6.37h50.06c1.82,0,2.96,1.14,2.96,2.96v19.57c0,1.82-1.14,2.96-2.96,2.96h-50.06c-3.87,0-6.37,2.5-6.37,6.37v28.67c0,3.87,2.5,6.37,6.37,6.37h66.45c1.82,0,2.96,1.14,2.96,2.96v19.57c0,1.82-1.14,2.96-2.96,2.96h-97.17c-1.82,0-2.96-1.14-2.96-2.96V45.38Z"/><path d="M758.98,198.76V43.56c0-.68.46-1.14,1.14-1.14h42.78c6.37,0,10.24,0,12.97.23,54.16,5.01,62.58,68.95,22.98,88.75-3.64,1.82-4.32,4.78-2.28,7.96l40.96,59.85c1.14,1.59.45,2.5-1.37,2.5h-26.62c-1.82,0-3.64-.91-4.78-2.5l-37.55-55.76c-2.28-3.19-6.14-5.24-10.01-5.24h-4.55c-3.87,0-6.37,2.5-6.37,6.37v54.16c0,1.82-1.14,2.96-2.96,2.96h-21.39c-1.82,0-2.96-1.14-2.96-2.96ZM786.29,105.92c0,3.87,2.5,6.6,6.37,6.6h16.61c34.59,0,34.36-44.38,0-44.38h-16.61c-3.87,0-6.37,2.73-6.37,6.6v31.18Z"/><path d="M896.65,198.99l71.91-156.8c.46-1.14,2.05-2.05,3.41-2.05s2.73.91,3.19,2.05l71.91,156.8c.68,1.59,0,2.73-1.82,2.73h-22.3c-1.82,0-3.64-1.14-4.32-2.73l-6.37-13.88c-1.59-3.41-5.23-5.69-9.1-5.69h-62.58c-3.87,0-7.51,2.28-9.1,5.69l-6.37,13.88c-.68,1.59-2.5,2.73-4.1,2.73h-22.53c-1.82,0-2.5-1.14-1.82-2.73ZM952.4,153.93h39.14c3.87,0,5.23-2.28,3.64-5.92l-20.48-44.6c-.91-1.82-1.82-2.73-2.73-2.73s-1.82.91-2.73,2.73l-20.71,44.6c-1.59,3.64,0,5.92,3.87,5.92Z"/></svg>